# xmcd
#
# Track frame offsets:
#	150
#	13929
#	27787
#	43378
#	56568
#	71651
#	83999
#	97077
#	113297
#	130164
#	144388
#	156738
#	173014
#	191528
#
# Disc length: 2692 seconds
#
# Revision: 1
# Processed by: cddbd v1.5.2PL0 Copyright (c) Steve Scherf et al.
# Submitted via: EZCDAudioConverter 3.1.0.1
#
DISCID=c20a820e
DTITLE=Adrians Kukuvass - Starp rīta zvaigznēm
DYEAR=2006
DGENRE=
TTITLE0=Uz mājām
TTITLE1=Pārāk tuvu
TTITLE2=Atnāc
TTITLE3=Tas ir prieks
TTITLE4=Pasmaidot
TTITLE5=Mīlestības puķe
TTITLE6=Miers
TTITLE7=Garām
TTITLE8=Lai satiktu
TTITLE9=Šķiroties
TTITLE10=Paveries
TTITLE11=Es noteikti atgriezīšos
TTITLE12=Uz šīs skaistās pasaules
TTITLE13=Starp rīta zvaigznēm
EXTD=
EXTT0=
EXTT1=
EXTT2=
EXTT3=
EXTT4=
EXTT5=
EXTT6=
EXTT7=
EXTT8=
EXTT9=
EXTT10=
EXTT11=
EXTT12=
EXTT13=
PLAYORDER=
